<mxfile host="app.diagrams.net" agent="Mozilla/5.0 (Windows NT 10.0; Win64; x64) AppleWebKit/537.36 (KHTML, like Gecko) Chrome/125.0.0.0 Safari/537.36 OPR/111.0.0.0" version="24.7.7">
  <diagram name="Página-1" id="GzO47rY1K1jps38AesxF">
    <mxGraphModel dx="1187" dy="674" grid="1" gridSize="10" guides="1" tooltips="1" connect="1" arrows="1" fold="1" page="1" pageScale="1" pageWidth="827" pageHeight="1169" background="none" math="0" shadow="1">
      <root>
        <mxCell id="0" />
        <mxCell id="1" parent="0" />
        <mxCell id="HiseYCoA78sDMewsbY0C-3" style="edgeStyle=orthogonalEdgeStyle;rounded=0;orthogonalLoop=1;jettySize=auto;html=1;fontStyle=1" edge="1" parent="1" source="HiseYCoA78sDMewsbY0C-1" target="HiseYCoA78sDMewsbY0C-2">
          <mxGeometry relative="1" as="geometry" />
        </mxCell>
        <mxCell id="HiseYCoA78sDMewsbY0C-1" value="Entrada" style="ellipse;whiteSpace=wrap;html=1;fillColor=#7bff7b;strokeColor=#36393d;fontStyle=1" vertex="1" parent="1">
          <mxGeometry x="120" y="240" width="120" height="80" as="geometry" />
        </mxCell>
        <mxCell id="HiseYCoA78sDMewsbY0C-5" style="edgeStyle=orthogonalEdgeStyle;rounded=0;orthogonalLoop=1;jettySize=auto;html=1;fontStyle=1" edge="1" parent="1" source="HiseYCoA78sDMewsbY0C-2" target="HiseYCoA78sDMewsbY0C-4">
          <mxGeometry relative="1" as="geometry" />
        </mxCell>
        <mxCell id="HiseYCoA78sDMewsbY0C-2" value="Base, Altura" style="shape=manualInput;whiteSpace=wrap;html=1;fontStyle=1" vertex="1" parent="1">
          <mxGeometry x="80" y="400" width="200" height="80" as="geometry" />
        </mxCell>
        <mxCell id="HiseYCoA78sDMewsbY0C-7" style="edgeStyle=orthogonalEdgeStyle;rounded=0;orthogonalLoop=1;jettySize=auto;html=1;fontStyle=1" edge="1" parent="1" source="HiseYCoA78sDMewsbY0C-4" target="HiseYCoA78sDMewsbY0C-6">
          <mxGeometry relative="1" as="geometry" />
        </mxCell>
        <mxCell id="HiseYCoA78sDMewsbY0C-4" value="Perímetro ← Base * 2 + Altura * 2&lt;div&gt;Área ← Base * Altura&lt;/div&gt;" style="rounded=0;whiteSpace=wrap;html=1;fontStyle=1" vertex="1" parent="1">
          <mxGeometry x="80" y="555" width="200" height="85" as="geometry" />
        </mxCell>
        <mxCell id="HiseYCoA78sDMewsbY0C-9" style="edgeStyle=orthogonalEdgeStyle;rounded=0;orthogonalLoop=1;jettySize=auto;html=1;fontStyle=1" edge="1" parent="1" source="HiseYCoA78sDMewsbY0C-6" target="HiseYCoA78sDMewsbY0C-8">
          <mxGeometry relative="1" as="geometry" />
        </mxCell>
        <mxCell id="HiseYCoA78sDMewsbY0C-6" value="Perímetro, Área" style="shape=display;whiteSpace=wrap;html=1;fontStyle=1" vertex="1" parent="1">
          <mxGeometry x="80" y="720" width="200" height="80" as="geometry" />
        </mxCell>
        <mxCell id="HiseYCoA78sDMewsbY0C-8" value="Saída" style="ellipse;whiteSpace=wrap;html=1;fillColor=#ff7b7b;strokeColor=#36393d;fontStyle=1" vertex="1" parent="1">
          <mxGeometry x="120" y="880" width="120" height="80" as="geometry" />
        </mxCell>
        <mxCell id="HiseYCoA78sDMewsbY0C-10" value="Inicia o algoritimo" style="rounded=0;whiteSpace=wrap;html=1;strokeColor=#7b7b7b;" vertex="1" parent="1">
          <mxGeometry x="320" y="240" width="200" height="80" as="geometry" />
        </mxCell>
        <mxCell id="HiseYCoA78sDMewsbY0C-11" value="Armazena as variáveis Base e Altura" style="rounded=0;whiteSpace=wrap;html=1;strokeColor=#7b7b7b;" vertex="1" parent="1">
          <mxGeometry x="320" y="400" width="200" height="80" as="geometry" />
        </mxCell>
        <mxCell id="HiseYCoA78sDMewsbY0C-12" value="Exibe na tela as variáveis Perímetro e Área" style="rounded=0;whiteSpace=wrap;html=1;strokeColor=#7b7b7b;" vertex="1" parent="1">
          <mxGeometry x="320" y="720" width="200" height="80" as="geometry" />
        </mxCell>
        <mxCell id="HiseYCoA78sDMewsbY0C-13" value="Encerra o algoritmo" style="rounded=0;whiteSpace=wrap;html=1;strokeColor=#7b7b7b;" vertex="1" parent="1">
          <mxGeometry x="320" y="880" width="200" height="80" as="geometry" />
        </mxCell>
        <mxCell id="HiseYCoA78sDMewsbY0C-14" value="Processa uma operação de cálculo para encontrar o Perímetro e a Área" style="rounded=0;whiteSpace=wrap;html=1;strokeColor=#7b7b7b;" vertex="1" parent="1">
          <mxGeometry x="320" y="560" width="200" height="80" as="geometry" />
        </mxCell>
      </root>
    </mxGraphModel>
  </diagram>
</mxfile>
